<?xml version="1.0" encoding="UTF-8" standalone="no"?>
<!-- Created with Inkscape (http://www.inkscape.org/) -->

<svg
   width="96"
   height="96"
   viewBox="0 0 25.399999 25.4"
   version="1.1"
   id="svg1"
   inkscape:version="1.3.2 (091e20e, 2023-11-25, custom)"
   sodipodi:docname="タカ.svg.2025_01_01_18_49_06.0.svg"
   inkscape:export-filename="5.svg"
   inkscape:export-xdpi="192"
   inkscape:export-ydpi="192"
   xmlns:inkscape="http://www.inkscape.org/namespaces/inkscape"
   xmlns:sodipodi="http://sodipodi.sourceforge.net/DTD/sodipodi-0.dtd"
   xmlns="http://www.w3.org/2000/svg"
   xmlns:svg="http://www.w3.org/2000/svg">
  <sodipodi:namedview
     id="namedview1"
     pagecolor="#ffffff"
     bordercolor="#000000"
     borderopacity="0.25"
     inkscape:showpageshadow="2"
     inkscape:pageopacity="0.0"
     inkscape:pagecheckerboard="true"
     inkscape:deskcolor="#d1d1d1"
     inkscape:document-units="px"
     showgrid="true"
     inkscape:zoom="75.147912"
     inkscape:cx="66.136236"
     inkscape:cy="41.212057"
     inkscape:window-width="3840"
     inkscape:window-height="2126"
     inkscape:window-x="-11"
     inkscape:window-y="-11"
     inkscape:window-maximized="1"
     inkscape:current-layer="layer6">
    <inkscape:grid
       id="grid1"
       units="px"
       originx="0"
       originy="0"
       spacingx="8.4666664"
       spacingy="8.4666664"
       empcolor="#0099e5"
       empopacity="0.30196078"
       color="#0099e5"
       opacity="0.14901961"
       empspacing="2"
       dotted="false"
       gridanglex="30"
       gridanglez="30"
       visible="true" />
  </sodipodi:namedview>
  <defs
     id="defs1" />
  <g
     inkscape:groupmode="layer"
     id="layer6"
     inkscape:label="Layer 1"
     style="display:none">
    <path
       id="rect1"
       style="fill:#000000;fill-opacity:1;stroke-width:0.458273;stroke-linecap:square"
       d="M 0.52916666,0.52916666 V 7.9374998 H 8.9963499 V 17.463016 H 0.52916666 V 24.87135 H 8.4666665 16.93385 24.87135 V 17.463016 H 16.404166 V 0.52916666 h -3.7052 z" />
  </g>
  <g
     inkscape:groupmode="layer"
     id="layer1"
     inkscape:label="Layer 2"
     style="display:none">
    <path
       id="rect4"
       style="fill:#000000;fill-opacity:1;stroke-width:0.529167;stroke-linecap:square"
       d="M 0.52916666,0.52916666 V 7.9374998 H 7.9374998 8.4666665 16.93385 17.463016 V 8.9963499 H 16.93385 8.4666665 c -4.3900157,-2e-7 -7.93749999,3.5474831 -7.93749984,7.9375001 v 7.9375 H 8.4666665 24.87135 V 17.463016 H 17.463016 16.93385 8.4666665 7.9374998 v -1.05885 H 8.4666665 16.93385 c 4.390014,0 7.9375,-3.547484 7.9375,-7.9374995 0,-4.3900156 -3.547486,-7.93749973 -7.9375,-7.93749984 z" />
  </g>
  <g
     inkscape:groupmode="layer"
     id="layer2"
     inkscape:label="Layer 3"
     style="display:none">
    <path
       id="path20"
       style="color:#000000;fill:#000000;stroke-linecap:square;-inkscape-stroke:none"
       d="M 0.52916666,0.52916666 V 7.9374998 H 4.7614664 16.93385 17.463016 V 8.9963499 H 16.93385 4.7614664 V 16.404166 H 16.93385 17.463016 v 1.05885 H 16.93385 4.7614664 v 0.02894 H 0.52916666 V 24.87135 H 16.93385 c 4.390013,0 7.9375,-3.547487 7.9375,-7.9375 -7.15e-4,-1.399826 -0.372974,-2.774532 -1.07642,-3.98477 l -0.154513,-0.265617 0.154513,-0.265617 c 0.697698,-1.20029 1.06972,-2.5628796 1.07642,-3.9511795 0,-4.3900156 -3.547486,-7.93749973 -7.9375,-7.93749984 z" />
  </g>
  <g
     inkscape:groupmode="layer"
     id="layer3"
     inkscape:label="Layer 4"
     style="display:inline">
    <path
       id="path34"
       style="fill:#000000;fill-opacity:1;stroke:none;stroke-width:1.05833;stroke-linecap:square;stroke-dasharray:none;stroke-opacity:1"
       d="M 0.52916666,0.52916666 V 8.4666665 16.404166 H 8.4666665 17.463016 V 24.87135 H 24.87135 V 16.93385 8.4666665 0.52916666 H 17.463016 V 8.9963499 H 7.9374998 V 0.52916666 Z" />
  </g>
  <g
     inkscape:groupmode="layer"
     id="layer4"
     inkscape:label="Layer 5"
     style="display:none">
    <g
       inkscape:groupmode="layer"
       id="g35"
       inkscape:label="Layer 2 コピー"
       style="display:inline">
      <path
         id="path35"
         style="fill:#000000;fill-opacity:1;stroke-width:0.529167;stroke-linecap:square"
         d="M 0.52916666,24.87135 V 17.463017 H 7.9374998 8.4666665 16.93385 17.463016 v -1.05885 H 16.93385 8.4666665 c -0.1781211,0 -0.3540003,-0.0081 -0.5291667,-0.01964 v 0.02015 H 0.52916666 V 8.9963507 h 0.019637 c -0.0115219,-0.175335 -0.0196371,-0.351388 -0.019637,-0.529684 V 0.52916666 H 8.4666665 24.87135 V 7.9375007 H 17.463016 16.93385 8.4666665 7.9374998 v 1.05885 H 8.4666665 16.93385 c 4.390009,0 7.9375,3.5474883 7.9375,7.9374993 0,4.390011 -3.547491,7.9375 -7.9375,7.9375 z" />
    </g>
  </g>
  <g
     inkscape:groupmode="layer"
     id="layer5"
     inkscape:label="Layer 2 コピー 1"
     style="display:none">
    <path
       id="path36"
       style="fill:#000000;fill-opacity:1;stroke:none;stroke-width:1.05833;stroke-linecap:square;stroke-dasharray:none;stroke-opacity:1"
       d="M 8.4666665,0.52916666 C 4.0766508,0.52916651 0.52916651,4.0766508 0.52916666,8.4666665 V 16.93385 c 1.1e-7,4.390014 3.54748434,7.9375 7.93749984,7.9375 H 16.93385 c 4.390014,0 7.9375,-3.547486 7.9375,-7.9375 0,-4.390017 -3.547486,-7.9375 -7.9375,-7.9375001 H 8.4666665 7.9374998 V 7.9374998 H 8.4666665 16.93385 17.463016 24.87135 V 0.52916666 Z M 7.9374998,16.404166 h 0.5291667 8.4671835 0.529166 v 1.05885 H 16.93385 8.4666665 7.9374998 Z" />
  </g>
</svg>
