<?xml version="1.0" encoding="UTF-8" standalone="no"?>
<!-- Created with Inkscape (http://www.inkscape.org/) -->

<svg
   width="224"
   height="256"
   viewBox="0 0 59.266664 67.733334"
   version="1.1"
   id="svg1"
   inkscape:version="1.3.2 (091e20e, 2023-11-25, custom)"
   sodipodi:docname="なすび.svg"
   xmlns:inkscape="http://www.inkscape.org/namespaces/inkscape"
   xmlns:sodipodi="http://sodipodi.sourceforge.net/DTD/sodipodi-0.dtd"
   xmlns="http://www.w3.org/2000/svg"
   xmlns:svg="http://www.w3.org/2000/svg">
  <sodipodi:namedview
     id="namedview1"
     pagecolor="#ffffff"
     bordercolor="#000000"
     borderopacity="0.25"
     inkscape:showpageshadow="2"
     inkscape:pageopacity="0.0"
     inkscape:pagecheckerboard="true"
     inkscape:deskcolor="#d1d1d1"
     inkscape:document-units="px"
     showgrid="true"
     inkscape:zoom="1.6605499"
     inkscape:cx="16.259674"
     inkscape:cy="173.43652"
     inkscape:window-width="3840"
     inkscape:window-height="2126"
     inkscape:window-x="-11"
     inkscape:window-y="-11"
     inkscape:window-maximized="1"
     inkscape:current-layer="layer4">
    <inkscape:grid
       id="grid1"
       units="px"
       originx="0"
       originy="-1.1080934e-07"
       spacingx="8.4666665"
       spacingy="8.4666665"
       empcolor="#0099e5"
       empopacity="0.30196078"
       color="#0099e5"
       opacity="0.14901961"
       empspacing="2"
       dotted="false"
       gridanglex="30"
       gridanglez="30"
       visible="true" />
  </sodipodi:namedview>
  <defs
     id="defs1" />
  <g
     inkscape:groupmode="layer"
     id="layer4"
     inkscape:label="なすび">
    <rect
       style="opacity:1;fill:#7858a1;fill-opacity:1;stroke:none;stroke-width:5.29166;stroke-linecap:square"
       id="rect82"
       width="16.933332"
       height="8.4666662"
       x="33.866665"
       y="16.933332" />
    <path
       id="rect73"
       style="opacity:1;fill:#9176b6;fill-opacity:1;stroke:none;stroke-width:5.29166;stroke-linecap:square"
       d="M 33.866666,16.933333 V 50.799998 A 16.933332,16.933332 0 0 0 50.799998,33.866666 16.933332,16.933332 0 0 0 33.866666,16.933333 Z" />
    <path
       style="opacity:1;fill:#3b1e64;fill-opacity:1;stroke:none;stroke-width:5.29166;stroke-linecap:square"
       d="M 50.799998,33.866664 33.866664,50.799996 h 16.933334 z"
       id="path79" />
    <path
       id="rect71"
       style="opacity:1;fill:#9176b6;fill-opacity:1;stroke:none;stroke-width:5.29166;stroke-linecap:square"
       d="M 33.866666,16.933333 A 16.933332,16.933332 0 0 1 16.933333,33.866666 h 16.933333 z" />
    <ellipse
       style="opacity:1;fill:#7858a1;fill-opacity:1;stroke:none;stroke-width:5.32116;stroke-linecap:square"
       id="path71"
       cx="16.933332"
       cy="50.799999"
       rx="16.933332"
       ry="16.933334" />
    <rect
       style="opacity:1;fill:#4d2c7b;fill-opacity:1;stroke:none;stroke-width:7.48354;stroke-linecap:square"
       id="rect72"
       width="16.933336"
       height="33.866665"
       x="16.933332"
       y="33.866665" />
    <path
       style="opacity:1;fill:#3b1e64;fill-opacity:1;stroke:none;stroke-width:5.29166;stroke-linecap:square"
       d="M 33.866666,67.733328 50.8,50.799996 H 33.866666 Z"
       id="path72" />
    <path
       id="path73"
       style="opacity:1;fill:#6f934b;fill-opacity:1;stroke:none;stroke-width:5.29166;stroke-linecap:square"
       d="m 50.799998,8.4666655 a 8.4666662,8.4666662 0 0 1 8.466666,8.4666665 h -8.466666 z" />
    <path
       id="path74"
       style="opacity:1;fill:#7ea158;fill-opacity:1;stroke:none;stroke-width:10.5833;stroke-linecap:square"
       d="M 59.266664,33.866664 A 16.933332,16.933332 0 0 1 42.333332,16.933332 h 16.933332 z" />
    <path
       style="opacity:1;fill:#94b76f;fill-opacity:1;stroke:none;stroke-width:2.64582;stroke-linecap:square"
       d="m 33.866666,25.399998 8.466666,-8.466666 h -8.466666 z"
       id="path75" />
    <path
       style="opacity:1;fill:#8aac66;fill-opacity:1;stroke:none;stroke-width:2.64582;stroke-linecap:square"
       d="M 33.866666,8.4666659 25.4,16.933332 h 8.466666 z"
       id="path76" />
    <rect
       style="opacity:1;fill:#7ea158;fill-opacity:1;stroke:none;stroke-width:5.29166;stroke-linecap:square"
       id="rect76"
       width="16.933331"
       height="8.4666662"
       x="33.866665"
       y="8.4666662" />
    <path
       style="opacity:1;fill:#7ea158;fill-opacity:1;stroke:none;stroke-width:2.64582;stroke-linecap:square"
       d="M 50.799996,1.1080933e-7 42.33333,8.4666661 h 8.466666 z"
       id="path77" />
    <path
       style="opacity:1;fill:#7ea158;fill-opacity:1;stroke:none;stroke-width:2.64582;stroke-linecap:square"
       d="M 50.799996,8.4666661 59.266662,1.1080933e-7 h -8.466666 z"
       id="path78" />
    <path
       id="path82"
       style="opacity:1;fill:#4d2c7b;fill-opacity:1;stroke:none;stroke-width:10.5833;stroke-linecap:square"
       d="M 28.906762,38.82657 4.9898762,62.743456 A 16.933332,16.933334 0 0 0 16.933333,67.733332 16.933332,16.933334 0 0 0 33.866666,50.799998 16.933332,16.933334 0 0 0 28.906762,38.82657 Z" />
    <path
       id="path80"
       style="opacity:1;fill:#3b1e64;fill-opacity:1;stroke:none;stroke-width:5.29166;stroke-linecap:square"
       d="M 33.866666,50.799994 A 16.933332,16.933332 0 0 1 16.933333,67.733328 h 16.933333 z" />
    <path
       id="path81"
       style="opacity:1;fill:#b29ecb;fill-opacity:1;stroke:none;stroke-width:5.29166;stroke-linecap:square"
       d="m 31.59187,25.398966 a 16.933332,16.933332 0 0 1 -14.658537,8.4677 16.933332,16.933334 0 0 0 -14.6161618,8.475968 16.933334,16.933332 0 0 0 14.6161618,8.457364 16.933334,16.933332 0 0 0 16.933333,-16.933332 16.933334,16.933332 0 0 0 -2.274796,-8.4677 z" />
    <path
       style="opacity:1;fill:#94b76f;fill-opacity:1;stroke:none;stroke-width:2.64582;stroke-linecap:square"
       d="M 42.33333,8.4666663 33.866664,16.933332 H 42.33333 Z"
       id="path83" />
    <path
       style="opacity:1;fill:#8aac66;fill-opacity:1;stroke:none;stroke-width:2.64582;stroke-linecap:square"
       d="M 42.33333,16.933332 50.799996,8.4666663 H 42.33333 Z"
       id="path84" />
    <path
       id="rect84"
       style="opacity:1;fill:#6f934b;fill-opacity:1;stroke:none;stroke-width:5.29166;stroke-linecap:square"
       d="M 50.799998,16.933333 V 31.59807 a 16.933332,16.933332 0 0 0 8.466668,2.268596 V 16.933333 Z" />
  </g>
</svg>
