<?xml version="1.0" encoding="UTF-8" standalone="no"?>
<!-- Created with Inkscape (http://www.inkscape.org/) -->

<svg
   width="336"
   height="160"
   viewBox="0 0 88.899996 42.333333"
   version="1.1"
   id="svg1"
   inkscape:version="1.3.2 (091e20e, 2023-11-25, custom)"
   sodipodi:docname="タカ.svg"
   inkscape:export-filename="タバコ.png"
   inkscape:export-xdpi="192"
   inkscape:export-ydpi="192"
   xmlns:inkscape="http://www.inkscape.org/namespaces/inkscape"
   xmlns:sodipodi="http://sodipodi.sourceforge.net/DTD/sodipodi-0.dtd"
   xmlns="http://www.w3.org/2000/svg"
   xmlns:svg="http://www.w3.org/2000/svg">
  <sodipodi:namedview
     id="namedview1"
     pagecolor="#ffffff"
     bordercolor="#000000"
     borderopacity="0.25"
     inkscape:showpageshadow="2"
     inkscape:pageopacity="0.0"
     inkscape:pagecheckerboard="true"
     inkscape:deskcolor="#d1d1d1"
     inkscape:document-units="px"
     showgrid="true"
     inkscape:zoom="3.3210999"
     inkscape:cx="137.30391"
     inkscape:cy="209.56913"
     inkscape:window-width="3840"
     inkscape:window-height="2126"
     inkscape:window-x="-11"
     inkscape:window-y="-11"
     inkscape:window-maximized="1"
     inkscape:current-layer="layer6">
    <inkscape:grid
       id="grid1"
       units="px"
       originx="0"
       originy="0"
       spacingx="8.4666664"
       spacingy="8.4666664"
       empcolor="#0099e5"
       empopacity="0.30196078"
       color="#0099e5"
       opacity="0.14901961"
       empspacing="2"
       dotted="false"
       gridanglex="30"
       gridanglez="30"
       visible="true" />
  </sodipodi:namedview>
  <defs
     id="defs1" />
  <g
     inkscape:groupmode="layer"
     id="layer6"
     inkscape:label="Layer 1">
    <path
       id="path10"
       style="color:#000000;fill:#000000;stroke-linecap:square;-inkscape-stroke:none"
       d="m 42.862511,4.7614663 v 3.1760335 0.5291666 0.5296834 3.1734492 h 7.407816 V 4.7614663 Z m 8.466666,0 v 7.4083327 h 3.176034 4.2323 V 8.4666664 7.9374998 4.7614663 Z M 34.395328,8.9963498 V 21.166149 c 0,2.436438 -1.868137,4.380048 -4.2323,4.656047 v 7.408333 c 6.467226,-0.292322 11.640634,-5.524232 11.640633,-12.06438 V 13.22865 12.169799 8.9963498 Z m 25.400516,0 V 13.22865 h -4.234367 v 3.175516 h 16.93385 v 9.525517 h -16.93385 v 7.408333 h 16.404166 7.9375 v -7.9375 -8.466666 -7.9375002 h -7.9375 z M 42.862511,13.22865 v 7.937499 c -10e-7,6.540148 5.175473,11.772059 11.6427,12.06438 V 25.822196 C 52.141049,25.546197 50.270327,23.602587 50.270327,21.166149 V 13.22865 Z" />
    <path
       id="path2"
       style="color:#000000;fill:#000000;stroke-linecap:square;-inkscape-stroke:none"
       d="M 17.353462,8.9942828 C 17.076364,13.512744 13.512744,17.076364 8.9942828,17.353462 v 7.509102 c 2.7907662,-0.08809 5.4020022,-0.872134 7.6718832,-2.184879 l 0.458886,-0.265617 0.529167,0.916223 -0.45682,0.265617 c -2.425594,1.4028 -5.222613,2.238381 -8.2031162,2.32699 v 7.364408 C 22.307238,33.0018 33.001801,22.307236 33.285306,8.9942828 H 30.64464 Z m 5.211568,7.4791302 h 1.058334 v 1.058333 H 22.56503 Z" />
    <path
       style="color:#000000;fill:#000000;stroke-linecap:square;-inkscape-stroke:none"
       d="M 46.566666,8.4666666 V 21.166666"
       id="path14" />
  </g>
</svg>
