<?xml version="1.0" encoding="UTF-8" standalone="no"?>
<!-- Created with Inkscape (http://www.inkscape.org/) -->

<svg
   width="320"
   height="448"
   viewBox="0 0 84.666662 118.53333"
   version="1.1"
   id="svg1"
   inkscape:version="1.3.2 (091e20e, 2023-11-25, custom)"
   sodipodi:docname="人.svg"
   inkscape:export-filename="カード.svg"
   inkscape:export-xdpi="96"
   inkscape:export-ydpi="96"
   xmlns:inkscape="http://www.inkscape.org/namespaces/inkscape"
   xmlns:sodipodi="http://sodipodi.sourceforge.net/DTD/sodipodi-0.dtd"
   xmlns="http://www.w3.org/2000/svg"
   xmlns:svg="http://www.w3.org/2000/svg">
  <sodipodi:namedview
     id="namedview1"
     pagecolor="#ffffff"
     bordercolor="#000000"
     borderopacity="0.25"
     inkscape:showpageshadow="2"
     inkscape:pageopacity="0.0"
     inkscape:pagecheckerboard="true"
     inkscape:deskcolor="#d1d1d1"
     inkscape:document-units="px"
     showgrid="true"
     inkscape:zoom="3.3210999"
     inkscape:cx="52.693386"
     inkscape:cy="120.74313"
     inkscape:window-width="3840"
     inkscape:window-height="2126"
     inkscape:window-x="-11"
     inkscape:window-y="-11"
     inkscape:window-maximized="1"
     inkscape:current-layer="layer2">
    <inkscape:grid
       id="grid1"
       units="px"
       originx="0"
       originy="0"
       spacingx="8.4666663"
       spacingy="8.4666663"
       empcolor="#0099e5"
       empopacity="0.30196078"
       color="#0099e5"
       opacity="0.14901961"
       empspacing="2"
       dotted="false"
       gridanglex="30"
       gridanglez="30"
       visible="true" />
  </sodipodi:namedview>
  <defs
     id="defs1" />
  <g
     inkscape:groupmode="layer"
     id="layer2"
     inkscape:label="富士山"
     style="display:inline"
     transform="translate(4.2333328,12.699998)">
    <rect
       style="fill:#ffffff;fill-opacity:1;stroke:none;stroke-width:1.05833;stroke-linecap:square"
       id="rect21"
       width="50.799999"
       height="33.866665"
       x="12.7"
       y="-8.4666643"
       ry="8.3936672" />
    <rect
       style="fill:#e4be9d;fill-opacity:1;stroke:none;stroke-width:1.05833;stroke-linecap:square"
       id="rect2"
       width="16.933332"
       height="16.933332"
       x="29.633333"
       y="21.166666" />
    <path
       id="path1"
       style="fill:#f7dcbe;fill-opacity:1;stroke:none;stroke-width:1.05833;stroke-linecap:square"
       d="M 38.93819 -12.677777 A 16.933332 16.933332 0 0 1 39.208458 -12.659174 A 16.933332 16.933332 0 0 0 38.93819 -12.677777 z M 39.778449 -12.614215 A 16.933332 16.933332 0 0 1 40.087991 -12.578558 A 16.933332 16.933332 0 0 0 39.778449 -12.614215 z M 40.607339 -12.510346 A 16.933332 16.933332 0 0 1 40.954088 -12.453501 A 16.933332 16.933332 0 0 0 40.607339 -12.510346 z M 35.648469 -12.507245 A 16.933332 16.933332 0 0 0 34.872289 -12.352732 A 16.933332 16.933332 0 0 1 35.648469 -12.507245 z M 41.438813 -12.363584 A 16.933332 16.933332 0 0 1 41.77471 -12.292788 A 16.933332 16.933332 0 0 0 41.438813 -12.363584 z M 42.282689 -12.170831 A 16.933332 16.933332 0 0 1 42.591714 -12.090216 A 16.933332 16.933332 0 0 0 42.282689 -12.170831 z M 33.237763 -11.959992 A 16.933332 16.933332 0 0 0 32.377868 -11.668536 A 16.933332 16.933332 0 0 1 33.237763 -11.959992 z M 43.104344 -11.938804 A 16.933332 16.933332 0 0 1 43.404068 -11.845787 A 16.933332 16.933332 0 0 0 43.104344 -11.938804 z M 43.94822 -11.65355 A 16.933332 16.933332 0 0 1 44.197818 -11.563117 A 16.933332 16.933332 0 0 0 43.94822 -11.65355 z M 44.966763 -11.244273 A 16.933332 16.933332 0 0 1 45.127477 -11.169342 A 16.933332 16.933332 0 0 0 44.966763 -11.244273 z M 30.898371 -11.055654 A 16.933332 16.933332 0 0 0 30.091186 -10.657229 A 16.933332 16.933332 0 0 1 30.898371 -11.055654 z M 45.732091 -10.880471 A 16.933332 16.933332 0 0 1 45.969802 -10.754897 A 16.933332 16.933332 0 0 0 45.732091 -10.880471 z M 46.463829 -10.487213 A 16.933332 16.933332 0 0 1 46.755284 -10.315648 A 16.933332 16.933332 0 0 0 46.463829 -10.487213 z M 47.177997 -10.056749 A 16.933332 16.933332 0 0 1 47.479271 -9.8608949 A 16.933332 16.933332 0 0 0 47.177997 -10.056749 z M 28.649413 -9.7740785 A 16.933332 16.933332 0 0 0 27.99674 -9.3379295 A 16.933332 16.933332 0 0 1 28.649413 -9.7740785 z M 47.87873 -9.5859763 A 16.933332 16.933332 0 0 1 48.174836 -9.3730694 A 16.933332 16.933332 0 0 0 47.87873 -9.5859763 z M 48.558791 -9.0785138 A 16.933332 16.933332 0 0 1 48.831126 -8.8630231 A 16.933332 16.933332 0 0 0 48.558791 -9.0785138 z M 49.281228 -8.4780337 A 16.933332 16.933332 0 0 1 49.459512 -8.3230044 A 16.933332 16.933332 0 0 0 49.281228 -8.4780337 z M 50.656338 -7.1261782 A 16.933332 16.933332 0 0 1 50.811367 -6.9478946 A 16.933332 16.933332 0 0 0 50.656338 -7.1261782 z M 51.196356 -6.4977929 A 16.933332 16.933332 0 0 1 51.411847 -6.2254581 A 16.933332 16.933332 0 0 0 51.196356 -6.4977929 z M 24.528735 -5.8699242 A 16.933332 16.933332 0 0 0 24.091035 -5.2151839 A 16.933332 16.933332 0 0 1 24.528735 -5.8699242 z M 51.706403 -5.8415022 A 16.933332 16.933332 0 0 1 51.91931 -5.5453962 A 16.933332 16.933332 0 0 0 51.706403 -5.8415022 z M 52.194228 -5.1459374 A 16.933332 16.933332 0 0 1 52.390082 -4.8446639 A 16.933332 16.933332 0 0 0 52.194228 -5.1459374 z M 52.648981 -4.4219507 A 16.933332 16.933332 0 0 1 52.82158 -4.1289453 A 16.933332 16.933332 0 0 0 52.648981 -4.4219507 z M 29.633332 -4.2333317 L 21.166666 4.2333346 L 21.166666 21.166667 L 29.633332 29.633334 L 46.566665 29.633334 L 55.033331 21.166667 L 55.033331 12.700001 A 8.4666662 8.4666653 0 0 0 46.566665 4.2333346 A 8.4666662 8.4666662 0 0 0 38.099999 -4.2333317 L 29.633332 4.2333346 L 29.633332 -4.2333317 z M 23.210986 -3.7790959 A 16.933332 16.933332 0 0 0 22.808426 -2.963125 A 16.933332 16.933332 0 0 1 23.210986 -3.7790959 z M 53.075311 -3.6612736 A 16.933332 16.933332 0 0 1 53.218972 -3.3889388 A 16.933332 16.933332 0 0 0 53.075311 -3.6612736 z M 53.496991 -2.8060287 A 16.933332 16.933332 0 0 1 53.577606 -2.6334294 A 16.933332 16.933332 0 0 0 53.496991 -2.8060287 z M 53.89645 -1.8644841 A 16.933332 16.933332 0 0 1 53.986884 -1.614887 A 16.933332 16.933332 0 0 0 53.89645 -1.8644841 z M 22.198644 -1.48983 A 16.933332 16.933332 0 0 0 21.906673 -0.62890068 A 16.933332 16.933332 0 0 1 22.198644 -1.48983 z M 54.17912 -1.0707342 A 16.933332 16.933332 0 0 1 54.272138 -0.77101087 A 16.933332 16.933332 0 0 0 54.17912 -1.0707342 z M 54.42355 -0.25838068 A 16.933332 16.933332 0 0 1 54.504165 0.050644373 A 16.933332 16.933332 0 0 0 54.42355 -0.25838068 z M 54.626121 0.55862368 A 16.933332 16.933332 0 0 1 54.696918 0.89452048 A 16.933332 16.933332 0 0 0 54.626121 0.55862368 z M 21.513932 1.0056248 A 16.933332 16.933332 0 0 0 21.359419 1.7818048 A 16.933332 16.933332 0 0 1 21.513932 1.0056248 z M 54.786835 1.3792454 A 16.933332 16.933332 0 0 1 54.843679 1.7259942 A 16.933332 16.933332 0 0 0 54.786835 1.3792454 z M 54.911892 2.2453424 A 16.933332 16.933332 0 0 1 54.947549 2.5548842 A 16.933332 16.933332 0 0 0 54.911892 2.2453424 z M 54.992507 3.1248752 A 16.933332 16.933332 0 0 1 55.011111 3.3951429 A 16.933332 16.933332 0 0 0 54.992507 3.1248752 z " />
    <path
       id="path2"
       style="fill:#eecdab;fill-opacity:1;stroke:none;stroke-width:1.05833;stroke-linecap:square"
       d="M 38.892198 -12.681394 A 16.933332 16.933332 0 0 1 39.249799 -12.65659 A 16.933332 16.933332 0 0 0 38.892198 -12.681394 z M 39.678714 -12.625584 A 16.933332 16.933332 0 0 1 40.015644 -12.586827 A 16.933332 16.933332 0 0 0 39.678714 -12.625584 z M 40.483316 -12.530499 A 16.933332 16.933332 0 0 1 40.767536 -12.483991 A 16.933332 16.933332 0 0 0 40.483316 -12.530499 z M 41.257429 -12.401825 A 16.933332 16.933332 0 0 1 41.586608 -12.332579 A 16.933332 16.933332 0 0 0 41.257429 -12.401825 z M 42.04291 -12.23336 A 16.933332 16.933332 0 0 1 42.373123 -12.147577 A 16.933332 16.933332 0 0 0 42.04291 -12.23336 z M 42.796353 -12.033889 A 16.933332 16.933332 0 0 1 43.184443 -11.913999 A 16.933332 16.933332 0 0 0 42.796353 -12.033889 z M 43.553412 -11.79566 A 16.933332 16.933332 0 0 1 43.932201 -11.659235 A 16.933332 16.933332 0 0 0 43.553412 -11.79566 z M 44.298587 -11.522292 A 16.933332 16.933332 0 0 1 44.660322 -11.372947 A 16.933332 16.933332 0 0 0 44.298587 -11.522292 z M 45.039627 -11.210167 A 16.933332 16.933332 0 0 1 45.364671 -11.057721 A 16.933332 16.933332 0 0 0 45.039627 -11.210167 z M 45.763097 -10.863934 A 16.933332 16.933332 0 0 1 46.074189 -10.70012 A 16.933332 16.933332 0 0 0 45.763097 -10.863934 z M 46.456078 -10.491864 A 16.933332 16.933332 0 0 1 46.779572 -10.301695 A 16.933332 16.933332 0 0 0 46.456078 -10.491864 z M 47.136656 -10.08362 A 16.933332 16.933332 0 0 1 47.448265 -9.8810487 A 16.933332 16.933332 0 0 0 47.136656 -10.08362 z M 47.800698 -9.6423036 A 16.933332 16.933332 0 0 1 48.105589 -9.4226788 A 16.933332 16.933332 0 0 0 47.800698 -9.6423036 z M 48.437869 -9.1741152 A 16.933332 16.933332 0 0 1 48.724673 -8.9472556 A 16.933332 16.933332 0 0 0 48.437869 -9.1741152 z M 49.070905 -8.6609682 A 16.933332 16.933332 0 0 1 49.326703 -8.4387596 A 16.933332 16.933332 0 0 0 49.070905 -8.6609682 z M 49.651231 -8.1436872 A 16.933332 16.933332 0 0 1 49.931834 -7.8754865 A 16.933332 16.933332 0 0 0 49.651231 -8.1436872 z M 50.20882 -7.5985008 A 16.933332 16.933332 0 0 1 50.477021 -7.3178978 A 16.933332 16.933332 0 0 0 50.20882 -7.5985008 z M 50.772093 -6.9933698 A 16.933332 16.933332 0 0 1 50.994302 -6.7375715 A 16.933332 16.933332 0 0 0 50.772093 -6.9933698 z M 51.280589 -6.3913394 A 16.933332 16.933332 0 0 1 51.507449 -6.1045352 A 16.933332 16.933332 0 0 0 51.280589 -6.3913394 z M 51.756012 -5.7722558 A 16.933332 16.933332 0 0 1 51.975637 -5.4673648 A 16.933332 16.933332 0 0 0 51.756012 -5.7722558 z M 52.214382 -5.1149316 A 16.933332 16.933332 0 0 1 52.416954 -4.8033227 A 16.933332 16.933332 0 0 0 52.214382 -5.1149316 z M 52.635028 -4.4462386 A 16.933332 16.933332 0 0 1 52.825198 -4.1227441 A 16.933332 16.933332 0 0 0 52.635028 -4.4462386 z M 38.099999 -4.2333317 L 38.099999 29.633334 L 46.566665 29.633334 L 55.033331 21.166667 L 55.033331 12.700001 A 8.4666662 8.4666653 0 0 0 46.566665 4.2333346 A 8.4666662 8.4666662 0 0 0 38.099999 -4.2333317 z M 53.033454 -3.7408553 A 16.933332 16.933332 0 0 1 53.197268 -3.4297632 A 16.933332 16.933332 0 0 0 53.033454 -3.7408553 z M 53.391054 -3.0313379 A 16.933332 16.933332 0 0 1 53.5435 -2.7062932 A 16.933332 16.933332 0 0 0 53.391054 -3.0313379 z M 53.706281 -2.3269882 A 16.933332 16.933332 0 0 1 53.855626 -1.9652532 A 16.933332 16.933332 0 0 0 53.706281 -2.3269882 z M 53.992568 -1.5988673 A 16.933332 16.933332 0 0 1 54.128994 -1.220079 A 16.933332 16.933332 0 0 0 53.992568 -1.5988673 z M 54.247333 -0.85110933 A 16.933332 16.933332 0 0 1 54.367222 -0.46301934 A 16.933332 16.933332 0 0 0 54.247333 -0.85110933 z M 54.48091 -0.03978938 A 16.933332 16.933332 0 0 1 54.566693 0.29042301 A 16.933332 16.933332 0 0 0 54.48091 -0.03978938 z M 54.665912 0.74672589 A 16.933332 16.933332 0 0 1 54.735158 1.0759047 A 16.933332 16.933332 0 0 0 54.665912 0.74672589 z M 54.817324 1.5657973 A 16.933332 16.933332 0 0 1 54.863833 1.8500177 A 16.933332 16.933332 0 0 0 54.817324 1.5657973 z M 54.92016 2.3176894 A 16.933332 16.933332 0 0 1 54.958917 2.6546197 A 16.933332 16.933332 0 0 0 54.92016 2.3176894 z M 54.989923 3.0835341 A 16.933332 16.933332 0 0 1 55.014728 3.441135 A 16.933332 16.933332 0 0 0 54.989923 3.0835341 z " />
    <path
       style="fill:#eecdab;fill-opacity:1;stroke:none;stroke-width:1.05833;stroke-linecap:square"
       d="m 29.633333,16.933337 8.466666,-8.4666662 8.466667,8.4666662 z"
       id="path3" />
    <path
       style="fill:#383028;fill-opacity:1;stroke:none;stroke-width:1.05833;stroke-linecap:square"
       d="m 21.166666,-12.699998 8.466667,8.4666658 v 8.466666 l -8.466667,-8.466666 z"
       id="path4" />
    <path
       id="path5"
       style="fill:#2d261f;fill-opacity:1;stroke:none;stroke-width:1.05833;stroke-linecap:square"
       d="M 38.099999 -12.699998 L 38.099999 -4.2333317 A 8.4666662 8.4666662 0 0 1 46.566665 4.2333346 A 8.4666662 8.4666653 0 0 1 55.033331 12.700001 L 55.033331 4.2333346 L 55.033331 -4.2333317 L 52.761119 -4.2333317 A 16.933332 16.933332 0 0 0 50.073428 -7.7400942 L 55.033331 -12.699998 L 46.566665 -12.699998 L 45.065465 -11.198798 A 16.933332 16.933332 0 0 0 38.099999 -12.699998 z " />
    <path
       id="path7"
       style="fill:#383028;fill-opacity:1;stroke:none;stroke-width:1.05833;stroke-linecap:square"
       d="M 38.1,-12.699995 A 16.933332,16.933332 0 0 0 21.166667,4.2333368 l 8.466666,-8.466666 v 8.466666 L 38.1,-4.2333292 Z" />
    <rect
       style="fill:#fffefe;fill-opacity:1;stroke:none;stroke-width:1.22205;stroke-linecap:square"
       id="rect10"
       width="84.666664"
       height="67.73333"
       x="-4.2333326"
       y="38.100002" />
    <g
       id="g18"
       transform="matrix(-0.80000001,0,0,0.80000001,24.553333,11.853333)">
      <path
         id="rect13"
         style="fill:#e4be9d;fill-opacity:1;stroke:none;stroke-width:0.515866;stroke-linecap:square"
         d="m 21.166666,44.449999 a 4.2333331,4.2333331 0 0 1 -4.233333,-4.233333 4.2333331,4.2333331 0 0 1 0.922941,-2.624129 V 34.374129 A 4.2333331,4.2333331 0 0 1 16.933333,31.75 4.2333331,4.2333331 0 0 1 21.166666,27.516667 4.2333331,4.2333331 0 0 1 25.399999,31.75 v 8.466666 a 4.2333331,4.2333331 0 0 1 -4.233333,4.233333 z" />
      <path
         id="path11"
         style="fill:#eecdab;fill-opacity:1;stroke:none;stroke-width:1.05833;stroke-linecap:square"
         d="M 8.4666667,44.449999 A 4.2333331,4.2333331 0 0 1 4.2333335,40.216666 V 31.75 A 4.2333331,4.2333331 0 0 1 8.4666667,27.516667 4.2333331,4.2333331 0 0 1 12.7,31.75 4.2333331,4.2333331 0 0 1 10.315133,35.557519 v 0.857312 A 4.2333331,4.2333331 0 0 1 12.7,40.216666 4.2333331,4.2333331 0 0 1 8.4666667,44.449999 Z" />
      <path
         id="circle11"
         style="fill:#f7dcbe;fill-opacity:1;stroke:none;stroke-width:1.05833;stroke-linecap:square"
         d="M 12.7,46.566666 A 4.2333331,4.2333331 0 0 1 8.4666667,42.333333 V 27.516667 h 6.3499993 v 11.161075 3.655591 3.665409 A 4.2333331,4.2333331 0 0 1 12.7,46.566666 Z" />
      <path
         id="circle12"
         style="fill:#eecdab;fill-opacity:1;stroke:none;stroke-width:1.05833;stroke-linecap:square"
         d="M 16.933333,46.566666 A 4.2333331,4.2333331 0 0 1 14.816666,45.988924 V 42.333333 38.677742 27.516667 h 6.35 v 14.816666 a 4.2333331,4.2333331 0 0 1 -4.233333,4.233333 z" />
    </g>
    <g
       id="g21"
       transform="matrix(0.80000001,0,0,0.80000001,51.646665,11.853333)">
      <path
         id="path18"
         style="fill:#e4be9d;fill-opacity:1;stroke:none;stroke-width:0.515866;stroke-linecap:square"
         d="m 21.166666,44.449999 a 4.2333331,4.2333331 0 0 1 -4.233333,-4.233333 4.2333331,4.2333331 0 0 1 0.922941,-2.624129 V 34.374129 A 4.2333331,4.2333331 0 0 1 16.933333,31.75 4.2333331,4.2333331 0 0 1 21.166666,27.516667 4.2333331,4.2333331 0 0 1 25.399999,31.75 v 8.466666 a 4.2333331,4.2333331 0 0 1 -4.233333,4.233333 z" />
      <path
         id="path19"
         style="fill:#eecdab;fill-opacity:1;stroke:none;stroke-width:1.05833;stroke-linecap:square"
         d="M 8.4666667,44.449999 A 4.2333331,4.2333331 0 0 1 4.2333335,40.216666 V 31.75 A 4.2333331,4.2333331 0 0 1 8.4666667,27.516667 4.2333331,4.2333331 0 0 1 12.7,31.75 4.2333331,4.2333331 0 0 1 10.315133,35.557519 v 0.857312 A 4.2333331,4.2333331 0 0 1 12.7,40.216666 4.2333331,4.2333331 0 0 1 8.4666667,44.449999 Z" />
      <path
         id="path20"
         style="fill:#f7dcbe;fill-opacity:1;stroke:none;stroke-width:1.05833;stroke-linecap:square"
         d="M 12.7,46.566666 A 4.2333331,4.2333331 0 0 1 8.4666667,42.333333 V 27.516667 h 6.3499993 v 11.161075 3.655591 3.665409 A 4.2333331,4.2333331 0 0 1 12.7,46.566666 Z" />
      <path
         id="path21"
         style="fill:#eecdab;fill-opacity:1;stroke:none;stroke-width:1.05833;stroke-linecap:square"
         d="M 16.933333,46.566666 A 4.2333331,4.2333331 0 0 1 14.816666,45.988924 V 42.333333 38.677742 27.516667 h 6.35 v 14.816666 a 4.2333331,4.2333331 0 0 1 -4.233333,4.233333 z" />
    </g>
  </g>
</svg>
