<?xml version="1.0" encoding="UTF-8" standalone="no"?>
<!-- Created with Inkscape (http://www.inkscape.org/) -->

<svg
   width="320"
   height="448"
   viewBox="0 0 84.666662 118.53333"
   version="1.1"
   id="svg1"
   inkscape:version="1.3.2 (091e20e, 2023-11-25, custom)"
   sodipodi:docname="女の子.svg"
   inkscape:export-filename="カード.svg"
   inkscape:export-xdpi="96"
   inkscape:export-ydpi="96"
   xmlns:inkscape="http://www.inkscape.org/namespaces/inkscape"
   xmlns:sodipodi="http://sodipodi.sourceforge.net/DTD/sodipodi-0.dtd"
   xmlns="http://www.w3.org/2000/svg"
   xmlns:svg="http://www.w3.org/2000/svg">
  <sodipodi:namedview
     id="namedview1"
     pagecolor="#ffffff"
     bordercolor="#000000"
     borderopacity="0.25"
     inkscape:showpageshadow="2"
     inkscape:pageopacity="0.0"
     inkscape:pagecheckerboard="true"
     inkscape:deskcolor="#d1d1d1"
     inkscape:document-units="px"
     showgrid="true"
     inkscape:zoom="4.6967445"
     inkscape:cx="93.681911"
     inkscape:cy="121.14774"
     inkscape:window-width="3840"
     inkscape:window-height="2126"
     inkscape:window-x="-11"
     inkscape:window-y="-11"
     inkscape:window-maximized="1"
     inkscape:current-layer="layer2"
     showguides="true">
    <inkscape:grid
       id="grid1"
       units="px"
       originx="0"
       originy="0"
       spacingx="8.4666663"
       spacingy="8.4666663"
       empcolor="#0099e5"
       empopacity="0.30196078"
       color="#0099e5"
       opacity="0.14901961"
       empspacing="2"
       dotted="false"
       gridanglex="30"
       gridanglez="30"
       visible="true" />
  </sodipodi:namedview>
  <defs
     id="defs1" />
  <g
     inkscape:groupmode="layer"
     id="layer2"
     inkscape:label="富士山"
     style="display:inline"
     transform="translate(4.2333328,12.699998)">
    <path
       id="rect22"
       style="fill:#ddc162;fill-opacity:1;stroke-width:1.05833;stroke-linecap:square"
       d="M 25.399999 29.633334 A 12.7 12.7 0 0 0 12.7 42.333333 L 12.7 105.83333 L 28.890742 105.83333 L 28.890742 54.537756 A 12.7 12.7 0 0 0 38.099999 42.333333 A 12.7 12.7 0 0 0 34.326586 33.412431 L 34.326586 29.633334 L 25.399999 29.633334 z " />
    <path
       id="path18"
       style="fill:#110f1d;stroke-width:1.05833;stroke-linecap:square"
       d="M 16.933333,4.2333346 H 33.866666 L 33.866667,12.7 16.933333,29.633334 Z"
       sodipodi:nodetypes="ccccc" />
    <path
       id="rect13"
       style="fill:#e4be9d;stroke-width:1.05833;stroke-linecap:square"
       d="M 46.566668,21.166666 H 29.633335 l -2e-6,25.399999 8.466669,-8.466667 8.466664,-8.466665 z"
       sodipodi:nodetypes="cccccc" />
    <path
       id="path6"
       style="fill:#f7dcbe;fill-opacity:1;stroke-width:1.05833;stroke-linecap:square"
       d="m 38.1,-12.699998 c 9.352022,-10e-7 16.933333,7.581311 16.933333,16.9333326 l -4.233335,8.4666664 -16.933332,16.933333 -8.466667,0 L 21.166666,25.4 l 2e-6,-21.1666654 C 21.166669,-5.1186867 28.747979,-12.699998 38.1,-12.699998 Z"
       sodipodi:nodetypes="ssccccss" />
    <path
       style="fill:#eecdab;fill-opacity:1;stroke-width:1.05833;stroke-linecap:square"
       d="m 29.633334,8.4666678 -8.466666,8.4666672 h 8.466666 z"
       id="path9" />
    <path
       id="rect16"
       style="fill:#110f1d;fill-opacity:1;stroke-width:1.05833;stroke-linecap:square"
       d="m 33.866666,-12.699998 c -9.352012,0 -16.933332,7.5813207 -16.933333,16.9333326 h 33.866665 c 0,-9.3520122 -7.58132,-16.9333336 -16.933332,-16.9333326 z" />
    <path
       id="rect17"
       style="fill:#110f1d;stroke-width:1.05833;stroke-linecap:square"
       d="M 38.099998,4.2333345 H 55.033331 L 55.033332,12.7 38.099998,29.633334 Z"
       sodipodi:nodetypes="ccccc" />
    <path
       id="path17"
       style="fill:#110f1d;fill-opacity:1;stroke-width:1.05833;stroke-linecap:square"
       d="m 38.099999,-12.699998 c -9.352012,0 -16.933332,7.5813207 -16.933333,16.9333326 h 33.866665 c 0,-9.3520122 -7.58132,-16.9333336 -16.933332,-16.9333326 z" />
    <rect
       style="fill:#110f1d;fill-opacity:1;stroke-width:1.05833;stroke-linecap:square"
       id="rect18"
       width="4.2333326"
       height="4.4221678"
       x="33.866665"
       y="-12.699998" />
    <path
       style="fill:#110f1d;fill-opacity:1;stroke-width:1.05833;stroke-linecap:square"
       d="M 29.633332,4.233334 38.099998,12.7 V 4.233334 Z"
       id="path19" />
    <path
       style="fill:#e4e2de;fill-opacity:1;stroke-width:1.05833;stroke-linecap:square"
       d="m 33.866665,29.633333 v 13.831011 l -4.233333,0.2535 V 29.633333 Z"
       id="path23" />
    <path
       id="path21"
       style="fill:#eed469;fill-opacity:1;stroke-width:1.05833;stroke-linecap:square"
       d="M 46.566665 29.633334 L 45.292324 30.907674 A 12.7 12.7 0 0 0 39.37434 36.825659 L 21.166666 55.033333 L 21.166666 105.83333 L 63.499998 105.83333 L 63.499998 42.333333 A 12.7 12.7 0 0 0 50.799998 29.633334 L 46.566665 29.633334 z " />
    <path
       style="fill:#f4f2ee;fill-opacity:1;stroke-width:1.05833;stroke-linecap:square"
       d="M 46.566665,29.633333 46.566667,25.4 21.166666,50.799999 v 4.23333 z"
       id="path22" />
  </g>
</svg>
