<?xml version="1.0" encoding="UTF-8" standalone="no"?>
<!-- Created with Inkscape (http://www.inkscape.org/) -->

<svg
   width="320"
   height="448"
   viewBox="0 0 84.666662 118.53333"
   version="1.1"
   id="svg1"
   inkscape:version="1.3.2 (091e20e, 2023-11-25, custom)"
   sodipodi:docname="話す人.svg"
   inkscape:export-filename="カード.svg"
   inkscape:export-xdpi="96"
   inkscape:export-ydpi="96"
   xmlns:inkscape="http://www.inkscape.org/namespaces/inkscape"
   xmlns:sodipodi="http://sodipodi.sourceforge.net/DTD/sodipodi-0.dtd"
   xmlns="http://www.w3.org/2000/svg"
   xmlns:svg="http://www.w3.org/2000/svg">
  <sodipodi:namedview
     id="namedview1"
     pagecolor="#ffffff"
     bordercolor="#000000"
     borderopacity="0.25"
     inkscape:showpageshadow="2"
     inkscape:pageopacity="0.0"
     inkscape:pagecheckerboard="true"
     inkscape:deskcolor="#d1d1d1"
     inkscape:document-units="px"
     showgrid="true"
     inkscape:zoom="4.6967445"
     inkscape:cx="110.28916"
     inkscape:cy="190.77044"
     inkscape:window-width="3840"
     inkscape:window-height="2126"
     inkscape:window-x="-11"
     inkscape:window-y="-11"
     inkscape:window-maximized="1"
     inkscape:current-layer="layer2">
    <inkscape:grid
       id="grid1"
       units="px"
       originx="0"
       originy="0"
       spacingx="8.4666663"
       spacingy="8.4666663"
       empcolor="#0099e5"
       empopacity="0.30196078"
       color="#0099e5"
       opacity="0.14901961"
       empspacing="2"
       dotted="false"
       gridanglex="30"
       gridanglez="30"
       visible="true" />
  </sodipodi:namedview>
  <defs
     id="defs1" />
  <g
     inkscape:groupmode="layer"
     id="layer2"
     inkscape:label="富士山"
     style="display:inline"
     transform="translate(4.2333328,12.699998)">
    <circle
       style="fill:#e8e6e5;fill-opacity:1;stroke-width:1.05833;stroke-linecap:square"
       id="path14"
       cx="25.4"
       cy="42.333332"
       r="12.7" />
    <circle
       style="fill:#e8e6e5;fill-opacity:1;stroke-width:1.05833;stroke-linecap:square"
       id="circle14"
       cx="50.799999"
       cy="42.333332"
       r="12.7" />
    <rect
       style="fill:#e8e6e5;fill-opacity:1;stroke-width:0.916541;stroke-linecap:square"
       id="rect14"
       width="25.399996"
       height="25.4"
       x="25.4"
       y="29.633333" />
    <path
       id="rect13"
       style="fill:#e4be9d;stroke-width:1.05833;stroke-linecap:square"
       d="M 29.633331,21.166666 H 46.566664 V 38.099998 H 38.099997 L 29.633333,29.633333 Z"
       sodipodi:nodetypes="cccccc" />
    <path
       id="path6"
       style="fill:#f7dcbe;fill-opacity:1;stroke-width:1.05833;stroke-linecap:square"
       d="M 38.099999,-12.699998 A 16.933332,16.933332 0 0 0 21.166666,4.2333346 V 12.700001 L 38.099999,29.633334 H 55.033331 V 4.2333346 A 16.933332,16.933332 0 0 0 38.099999,-12.699998 Z" />
    <path
       style="fill:#eecdab;fill-opacity:1;stroke-width:1.05833;stroke-linecap:square"
       d="m 46.566665,8.4666678 8.466666,8.4666672 h -8.466666 z"
       id="path9" />
    <path
       id="path10"
       style="fill:#383028;fill-opacity:1;stroke-width:1.05833;stroke-linecap:square"
       d="m 21.166666,-12.699998 v 8.4666663 8.4666663 16.9333314 l 8.466666,1e-6 v -8.466666 c 4.676011,0 8.466667,3.790655 8.466667,8.466666 V 12.700001 L 29.633332,4.2333346 h 8.466667 l 8.466666,-8.4666663 8.466666,8.4666663 c -0.0016,-2.4014691 -0.514076,-4.77512174 -1.503267,-6.9633989 l 1.503267,-1.5032674 v -8.4666663 l -4.959903,4.9599038 C 46.897912,-10.91574 42.590948,-12.699868 38.099999,-12.699998 h -8.466667 v 2.31252 c -1.9648,1.1410111 -3.679882,2.6657631 -5.043103,4.4834473 -2.152251,-1.5959802 -3.422018,-4.1165383 -3.423563,-6.7959673 z"
       sodipodi:nodetypes="ccccccccccccccccccccc" />
    <rect
       style="fill:#e8e6e5;fill-opacity:1;stroke-width:1.05833;stroke-linecap:square"
       id="rect15"
       width="50.799999"
       height="63.499996"
       x="12.7"
       y="42.333332" />
  </g>
</svg>
