<?xml version="1.0" encoding="UTF-8" standalone="no"?>
<!-- Created with Inkscape (http://www.inkscape.org/) -->

<svg
   width="224"
   height="223.99997"
   viewBox="0 0 59.266664 59.26666"
   version="1.1"
   id="svg1"
   inkscape:version="1.3.2 (091e20e, 2023-11-25, custom)"
   sodipodi:docname="鷹.svg"
   inkscape:export-filename="鷹.svg"
   inkscape:export-xdpi="192"
   inkscape:export-ydpi="192"
   xmlns:inkscape="http://www.inkscape.org/namespaces/inkscape"
   xmlns:sodipodi="http://sodipodi.sourceforge.net/DTD/sodipodi-0.dtd"
   xmlns="http://www.w3.org/2000/svg"
   xmlns:svg="http://www.w3.org/2000/svg">
  <sodipodi:namedview
     id="namedview1"
     pagecolor="#ffffff"
     bordercolor="#000000"
     borderopacity="0.25"
     inkscape:showpageshadow="2"
     inkscape:pageopacity="0.0"
     inkscape:pagecheckerboard="true"
     inkscape:deskcolor="#d1d1d1"
     inkscape:document-units="px"
     showgrid="true"
     inkscape:zoom="2.3483723"
     inkscape:cx="-80.055451"
     inkscape:cy="196.30619"
     inkscape:window-width="3840"
     inkscape:window-height="2126"
     inkscape:window-x="-11"
     inkscape:window-y="-11"
     inkscape:window-maximized="1"
     inkscape:current-layer="layer1">
    <inkscape:grid
       id="grid1"
       units="px"
       originx="7.3376455e-08"
       originy="-3.5904378e-08"
       spacingx="8.4666666"
       spacingy="8.4666666"
       empcolor="#0099e5"
       empopacity="0.30196078"
       color="#0099e5"
       opacity="0.14901961"
       empspacing="2"
       dotted="false"
       gridanglex="30"
       gridanglez="30"
       visible="true" />
  </sodipodi:namedview>
  <defs
     id="defs1" />
  <g
     inkscape:label="鷹"
     inkscape:groupmode="layer"
     id="layer1"
     style="display:inline">
    <path
       id="path25"
       style="opacity:1;fill:#8a6c52;fill-opacity:1;stroke:none;stroke-width:5.29164;stroke-linecap:square"
       d="M 8.4666669,8.466666 A 8.4666664,8.466668 0 0 0 7.3376462e-8,16.933332 H 16.933334 A 8.4666664,8.466668 0 0 0 8.4666669,8.466666 Z" />
    <rect
       style="opacity:1;fill:#8a6c52;fill-opacity:1;stroke:none;stroke-width:3.74176;stroke-linecap:square"
       id="rect22"
       width="8.4666662"
       height="8.4666662"
       x="8.4666691"
       y="16.933332" />
    <rect
       style="opacity:1;fill:#3f3226;fill-opacity:1;stroke:none;stroke-width:7.48354;stroke-linecap:square"
       id="rect16"
       width="16.933336"
       height="25.399998"
       x="16.933334"
       y="8.4666662" />
    <path
       id="path1"
       style="opacity:1;fill:#564130;fill-opacity:1;stroke:none;stroke-width:5.2251;stroke-linecap:square"
       d="M 42.333332,3.5904378e-8 A 8.4666662,8.4666662 0 0 0 33.866666,8.466666 h 8.466666 z" />
    <path
       style="opacity:1;fill:#ffffff;fill-opacity:1;stroke:none;stroke-width:5.29166;stroke-linecap:square"
       d="m 16.933334,16.933332 8.466668,8.466666 h -8.466668 z"
       id="path2" />
    <rect
       style="opacity:1;fill:#564130;fill-opacity:1;stroke:none;stroke-width:5.29166;stroke-linecap:square"
       id="rect5"
       width="8.4666662"
       height="8.4666662"
       x="42.333332"
       y="5.7523025e-08" />
    <rect
       style="opacity:1;fill:#6b5644;fill-opacity:1;stroke:none;stroke-width:5.29166;stroke-linecap:square"
       id="rect6"
       width="8.4666662"
       height="8.4666653"
       x="42.333332"
       y="8.4666662" />
    <rect
       style="opacity:1;fill:#776352;fill-opacity:1;stroke:none;stroke-width:3.74176;stroke-linecap:square"
       id="rect7"
       width="8.4666672"
       height="8.4666653"
       x="33.866665"
       y="16.933332" />
    <path
       style="opacity:1;fill:#846f5d;fill-opacity:1;stroke:none;stroke-width:5.29166;stroke-linecap:square"
       d="M 33.826832,33.747162 42.2935,25.280496 h -8.466668 z"
       id="path8" />
    <path
       style="opacity:1;fill:#564130;fill-opacity:1;stroke:none;stroke-width:5.29166;stroke-linecap:square"
       d="m 33.866664,8.4666666 -8.466668,8.4666654 h 8.466668 z"
       id="path9" />
    <path
       id="path3"
       style="opacity:1;fill:#8a6c52;fill-opacity:1;stroke:none;stroke-width:5.29164;stroke-linecap:square"
       d="M 8.4666669,8.466666 A 8.4666664,8.466668 0 0 0 7.3376462e-8,16.933332 H 16.933334 A 8.4666664,8.466668 0 0 0 8.4666669,8.466666 Z" />
    <path
       style="opacity:1;fill:#8a6c52;fill-opacity:1;stroke:none;stroke-width:5.29166;stroke-linecap:square"
       d="m 16.933334,16.933332 8.466668,8.466666 h -8.466668 z"
       id="path5" />
    <path
       id="path14"
       style="opacity:1;fill:#8a6c52;fill-opacity:1;stroke:none;stroke-width:10.4502;stroke-linecap:square"
       d="M 25.399998,42.33333 A 16.933333,16.933333 0 0 1 8.4666669,25.399998 H 25.399998 Z" />
    <rect
       style="opacity:1;fill:#8a6c52;fill-opacity:1;stroke:none;stroke-width:5.29166;stroke-linecap:square"
       id="rect14"
       width="8.4666662"
       height="8.4666662"
       x="25.4"
       y="33.866661" />
    <path
       style="opacity:1;fill:#aca196;fill-opacity:1;stroke:none;stroke-width:5.29166;stroke-linecap:square"
       d="m 42.333334,42.33333 8.466668,-8.466666 h -8.466668 z"
       id="path16" />
    <path
       id="path17"
       style="opacity:1;fill:#3f3226;fill-opacity:1;stroke:none;stroke-width:5.2251;stroke-linecap:square"
       d="M 25.4,4.3590438e-7 A 8.4666662,8.4666662 0 0 0 16.933334,8.4666664 H 25.4 Z" />
    <rect
       style="opacity:1;fill:#3f3226;fill-opacity:1;stroke:none;stroke-width:5.29166;stroke-linecap:square"
       id="rect17"
       width="8.4666662"
       height="8.4666662"
       x="25.4"
       y="5.7523025e-08" />
    <path
       style="opacity:1;fill:#564130;fill-opacity:1;stroke:none;stroke-width:5.29166;stroke-linecap:square"
       d="M 50.800002,8.4666662 59.26667,3.5904378e-8 h -8.466668 z"
       id="path19" />
    <path
       id="path20"
       style="opacity:1;fill:#6b5644;fill-opacity:1;stroke:none;stroke-width:5.2251;stroke-linecap:square"
       d="M 50.800002,16.933332 A 8.4666662,8.4666662 0 0 0 59.266668,8.4666658 H 50.800002 Z" />
    <rect
       style="opacity:1;fill:#5f4a39;fill-opacity:1;stroke:none;stroke-width:5.29166;stroke-linecap:square"
       id="rect20"
       width="8.4666662"
       height="16.933332"
       x="25.400003"
       y="16.933332" />
    <path
       id="path21"
       style="opacity:1;fill:#d1c5ba;fill-opacity:1;stroke:none;stroke-width:10.4502;stroke-linecap:square"
       d="M 8.4666687,25.4 A 16.933333,16.933333 0 0 0 25.400002,42.333332 16.933333,16.933333 0 0 0 8.4666687,25.4 Z" />
    <path
       style="opacity:1;fill:#8a6c52;fill-opacity:1;stroke:none;stroke-width:5.29166;stroke-linecap:square"
       d="M 8.4666685,25.399998 7.3376462e-8,16.933332 H 8.4666685 Z"
       id="path22" />
    <path
       style="opacity:1;fill:#bfb09c;fill-opacity:1;stroke:none;stroke-width:5.29166;stroke-linecap:square"
       d="M 8.4666677,25.399998 16.933336,16.933332 H 8.4666677 Z"
       id="path32" />
    <path
       style="opacity:1;fill:#8a6c52;fill-opacity:1;stroke:none;stroke-width:5.29166;stroke-linecap:square"
       d="m 33.866668,25.399998 8.466668,8.466666 h -8.466668 z"
       id="path24" />
    <rect
       style="opacity:1;fill:#8a6c52;fill-opacity:1;stroke:none;stroke-width:5.29166;stroke-linecap:square"
       id="rect24"
       width="8.4666662"
       height="8.4666662"
       x="25.400003"
       y="25.4" />
    <path
       style="opacity:1;fill:#aca196;fill-opacity:1;stroke:none;stroke-width:5.29166;stroke-linecap:square"
       d="m 42.333334,33.866664 8.466668,8.466666 h -8.466668 z"
       id="path26" />
    <path
       style="opacity:1;fill:#aca196;fill-opacity:1;stroke:none;stroke-width:5.29166;stroke-linecap:square"
       d="M 42.333334,50.799996 33.866666,42.33333 h 8.466668 z"
       id="path27" />
    <rect
       style="opacity:1;fill:#8a6c52;fill-opacity:1;stroke:none;stroke-width:5.29166;stroke-linecap:square"
       id="rect28"
       width="8.4666662"
       height="8.4666662"
       x="33.866665"
       y="33.866661" />
    <path
       style="opacity:1;fill:#eed45e;fill-opacity:1;stroke:none;stroke-width:5.29166;stroke-linecap:square"
       d="M 25.4,50.799996 33.866668,42.33333 H 25.4 Z"
       id="path28" />
    <path
       style="opacity:1;fill:#aca196;fill-opacity:1;stroke:none;stroke-width:5.29166;stroke-linecap:square"
       d="M 50.800002,50.799996 42.333334,42.33333 h 8.466668 z"
       id="path29" />
    <path
       id="path30"
       style="opacity:1;fill:#eed45e;fill-opacity:1;stroke:none;stroke-width:7.48354;stroke-linecap:square"
       d="M 16.933338,59.266662 25.4,50.799996 h -8.466666 z" />
    <path
       style="opacity:1;fill:#a48e70;fill-opacity:1;stroke:none;stroke-width:5.29166;stroke-linecap:square"
       d="M 8.4666687,8.4666658 6.7337646e-7,16.933332 H 8.4666687 Z"
       id="path33" />
    <path
       id="path34"
       style="opacity:1;fill:#cabfae;fill-opacity:1;stroke:none;stroke-width:5.29166;stroke-linecap:square"
       d="M 8.4666693,16.93333 H 3.2733765e-6 L 4.2333373,21.166664 Z" />
    <path
       id="path35"
       style="opacity:1;fill:#bfb09c;fill-opacity:1;stroke:none;stroke-width:5.29166;stroke-linecap:square"
       d="m 8.4666693,16.933332 v 8.466666 l -4.233334,-4.233334 z" />
    <path
       id="path36"
       style="opacity:1;fill:#99876e;fill-opacity:1;stroke:none;stroke-width:5.29166;stroke-linecap:square"
       d="M 14.4539,10.946102 8.4666687,16.933334 H 16.933334 A 8.4666664,8.466668 0 0 0 14.4539,10.946102 Z" />
    <rect
       style="opacity:1;fill:#1f1812;fill-opacity:1;stroke:none;stroke-width:5.29166;stroke-linecap:square"
       id="rect38"
       width="8.4666681"
       height="4.2333326"
       x="-7.3376462e-08"
       y="21.166666" />
    <path
       id="path23"
       style="opacity:1;fill:#eed45e;fill-opacity:1;stroke:none;stroke-width:5.29166;stroke-linecap:square"
       d="m 4.2333337,16.933332 v 8.466664 l 4.233334,-4.233332 z" />
    <rect
       style="opacity:1;fill:#cabfae;fill-opacity:1;stroke:none;stroke-width:5.29166;stroke-linecap:square"
       id="rect37"
       width="4.2333341"
       height="4.2333331"
       x="-7.3376462e-08"
       y="16.933332" />
    <path
       id="path37"
       style="opacity:1;fill:#eed45e;fill-opacity:1;stroke:none;stroke-width:5.29166;stroke-linecap:square"
       d="m 4.2333373,16.933332 v 8.466664 L 3.2733765e-6,21.166664 Z" />
    <path
       style="opacity:1;fill:#1f1812;fill-opacity:1;stroke:none;stroke-width:2.64582;stroke-linecap:square"
       d="M 4.2333343,29.633332 3.2733765e-6,25.399996 H 4.2333343 Z"
       id="path39" />
    <path
       id="rect39"
       style="opacity:1;fill:#1f1812;fill-opacity:1;stroke:none;stroke-width:5.29166;stroke-linecap:square"
       d="m 4.2333355,25.4 v 4.233334 A 4.2333332,4.2333332 0 0 1 8.4666687,25.4 Z" />
    <path
       style="opacity:1;fill:#67503e;fill-opacity:1;stroke:none;stroke-width:5.29166;stroke-linecap:square"
       d="M 25.400002,16.933334 16.933334,25.4 h 8.466668 z"
       id="path10" />
    <path
       id="path40"
       style="opacity:1;fill:#5f4a39;fill-opacity:1;stroke:none;stroke-width:10.5833;stroke-linecap:square"
       d="m 33.866666,16.93333 v 8.466668 a 8.4666668,8.4666662 0 0 1 8.466668,-8.466668 z" />
    <path
       id="path41"
       style="opacity:1;fill:#5f4a39;fill-opacity:1;stroke:none;stroke-width:10.5833;stroke-linecap:square"
       d="M 42.333334,8.4666658 V 16.933334 A 8.4666668,8.4666662 0 0 1 50.800002,8.4666658 Z" />
    <rect
       style="opacity:1;fill:#5f4a39;fill-opacity:1;stroke:none;stroke-width:5.29166;stroke-linecap:square"
       id="rect41"
       width="8.4666662"
       height="8.4666662"
       x="33.866665"
       y="8.4666662" />
    <rect
       style="opacity:1;fill:#776352;fill-opacity:1;stroke:none;stroke-width:5.29166;stroke-linecap:square"
       id="rect43"
       width="8.4666662"
       height="8.4666662"
       x="42.333332"
       y="16.933332" />
    <path
       style="opacity:1;fill:#564130;fill-opacity:1;stroke:none;stroke-width:5.29166;stroke-linecap:square"
       d="M 33.866666,16.933332 42.333334,8.4666662 H 33.866666 Z"
       id="path43" />
    <path
       style="opacity:1;fill:#d1c5ba;fill-opacity:1;stroke:none;stroke-width:5.29166;stroke-linecap:square"
       d="M 33.866668,33.866664 25.4,25.399998 h 8.466668 z"
       id="path44" />
    <path
       style="opacity:1;fill:#d1c5ba;fill-opacity:1;stroke:none;stroke-width:5.29166;stroke-linecap:square"
       d="m 33.866666,42.333328 -8.466668,-8.466666 h 8.466668 z"
       id="path45" />
    <path
       style="opacity:1;fill:#d1c5ba;fill-opacity:1;stroke:none;stroke-width:5.29166;stroke-linecap:square"
       d="m 42.333334,42.333328 -8.466668,-8.466666 h 8.466668 z"
       id="path46" />
    <path
       id="path47"
       style="opacity:1;fill:#5f4a39;fill-opacity:1;stroke:none;stroke-width:5.29166;stroke-linecap:square"
       d="m 50.800002,42.33333 v 8.466664 l -4.233334,-4.233332 z" />
    <path
       id="path48"
       style="opacity:1;fill:#5f4a39;fill-opacity:1;stroke:none;stroke-width:5.29166;stroke-linecap:square"
       d="m 42.333334,42.33333 v 8.466664 L 38.1,46.566662 Z" />
    <path
       style="opacity:1;fill:#5f4a39;fill-opacity:1;stroke:none;stroke-width:2.64582;stroke-linecap:square"
       d="M 46.56667,38.1 50.8,33.866664 h -4.23333 z"
       id="path49" />
    <path
       style="opacity:1;fill:#d1c5ba;fill-opacity:1;stroke:none;stroke-width:5.29166;stroke-linecap:square"
       d="m 33.866666,42.333328 -8.466668,-8.466666 h 8.466668 z"
       id="path50" />
  </g>
</svg>
